<svg width="69" height="69" viewBox="0 0 69 69" fill="none" xmlns="http://www.w3.org/2000/svg">
<mask id="mask0_2_17" style="mask-type:luminance" maskUnits="userSpaceOnUse" x="0" y="0" width="69" height="69">
<path d="M68.7369 0H0V68.7369H68.7369V0Z" fill="white"/>
</mask>
<g mask="url(#mask0_2_17)">
<path d="M34.3684 68.7369C53.3496 68.7369 68.7369 53.3496 68.7369 34.3684C68.7369 15.3872 53.3496 0 34.3684 0C15.3872 0 0 15.3872 0 34.3684C0 53.3496 15.3872 68.7369 34.3684 68.7369Z" fill="url(#paint0_linear_2_17)"/>
<path d="M23.2645 36.8808L27.3421 48.1668C27.3421 48.1668 27.8518 49.2228 28.3977 49.2228C28.9436 49.2228 37.0628 40.7762 37.0628 40.7762L46.0918 23.3371L23.4099 33.9675L23.2645 36.8808Z" fill="#C8DAEA"/>
<path d="M28.6705 39.7751L27.8878 48.094C27.8878 48.094 27.56 50.643 30.1085 48.094C32.6569 45.5451 35.0962 43.5795 35.0962 43.5795" fill="#A9C6D8"/>
<path d="M23.338 37.2835L14.9504 34.5506C14.9504 34.5506 13.9479 34.144 14.2708 33.2217C14.3372 33.0315 14.4712 32.8698 14.8722 32.5916C16.7307 31.2962 49.271 19.6004 49.271 19.6004C49.271 19.6004 50.1898 19.2908 50.7316 19.4966C50.8657 19.5381 50.9863 19.6146 51.0812 19.7179C51.1761 19.8214 51.2418 19.9481 51.2716 20.0852C51.3301 20.3275 51.3546 20.5767 51.3442 20.8256C51.3417 21.041 51.3156 21.2406 51.2959 21.5536C51.0977 24.7513 45.1669 48.6168 45.1669 48.6168C45.1669 48.6168 44.812 50.0132 43.5406 50.0611C43.2281 50.0712 42.917 50.0183 42.6253 49.9055C42.3338 49.7927 42.068 49.6224 41.8437 49.4047C39.3488 47.2586 30.7258 41.4636 28.8204 40.189C28.7773 40.1598 28.7412 40.1216 28.7142 40.0772C28.6872 40.0326 28.67 39.9829 28.664 39.9313C28.6374 39.797 28.7835 39.6305 28.7835 39.6305C28.7835 39.6305 43.7984 26.2842 44.1979 24.883C44.2289 24.7745 44.112 24.721 43.955 24.7685C42.9579 25.1354 25.6699 36.0528 23.7619 37.2578C23.6245 37.2992 23.4794 37.3081 23.338 37.2835Z" fill="white"/>
</g>
<defs>
<linearGradient id="paint0_linear_2_17" x1="34.3684" y1="68.7369" x2="34.3684" y2="0" gradientUnits="userSpaceOnUse">
<stop stop-color="#1D93D2"/>
<stop offset="1" stop-color="#38B0E3"/>
</linearGradient>
</defs>
</svg>
