<svg width="70" height="69" viewBox="0 0 70 69" fill="none" xmlns="http://www.w3.org/2000/svg">
<path d="M35.1053 68.7369C54.0865 68.7369 69.4738 53.3496 69.4738 34.3684C69.4738 15.3873 54.0865 0 35.1053 0C16.1242 0 0.736893 15.3873 0.736893 34.3684C0.736893 53.3496 16.1242 68.7369 35.1053 68.7369Z" fill="#1E1E1D"/>
<mask id="mask0_2_10" style="mask-type:luminance" maskUnits="userSpaceOnUse" x="17" y="17" width="35" height="34">
<path d="M51.0621 17.1843H17.9211V50.3531H51.0621V17.1843Z" fill="white"/>
</mask>
<g mask="url(#mask0_2_10)">
<path d="M37.6477 31.2306L49.9872 17.1843H47.0642L36.3453 29.378L27.7905 17.1843H17.9211L30.8604 35.6251L17.9211 50.3529H20.8441L32.1563 37.4732L41.1927 50.3529H51.0621M21.8991 19.3429H26.3897L47.062 48.3004H42.5703" fill="white"/>
</g>
</svg>
